<?xml version="1.0" encoding="utf-8"?>
<!-- Generator: Adobe Illustrator 24.1.2, SVG Export Plug-In . SVG Version: 6.00 Build 0)  -->
<svg version="1.1" id="kaonashi" xmlns="http://www.w3.org/2000/svg" xmlns:xlink="http://www.w3.org/1999/xlink" x="0px" y="0px"
	 viewBox="0 0 600 135" style="enable-background:new 0 0 600 135;" xml:space="preserve">
<style type="text/css">
	.st0{fill:#C1C4BB;}
	.st1{fill:#97A588;}
	.st2{fill:#627051;}
	.st3{fill:#E8E8E8;}
	.st4{fill:#DDE2D5;}
	.st5{fill:#A3511A;}
</style>
<ellipse id="shadow-big" class="st0" cx="293.1" cy="102.5" rx="256.3" ry="29.6"/>
<path id="body_1_" class="st1" d="M11.6-20.1c8.5,46.4,25.1,87.5,56.2,103.4c41.8,31.6,223,30,361,14C535,85,570.2,65.6,585.7-26.7
	L11.6-20.1z"/>
<path id="body-shading" class="st2" d="M483.4-12.5c-3.1,9-4.7,18-5.3,24c-1.2,11.6-6.6,9.3-9.3,12.8c-2.7,3.5-349.9-2.3-367.7-3.5
	S74.8,6.7,74.8,6.7L102.2,8l355-0.9l2.8-17.2L483.4-12.5z M73.5-24.4 M532.5-18.8C506.5,51,450.8,78.2,343.4,105
	c0,0,184.6,6.8,222.9-68.7c7-13.8,13.1-32.6,18.1-55L532.5-18.8z"/>
<path id="plate-bg_1_" class="st3" d="M464-5.3c0.1,7.8-6.2,14.2-14.1,14.2H86.1c-7.8,0-14.2-6.4-14.2-14.2"/>
<path id="plate-shading" class="st4" d="M464.1-5.4L449.9,8.8c0,0-25.3-0.1-12.8,0c5.4,0,7.7-6.9,8.3-15.1"/>
<path id="plate-frame" class="st5" d="M73.5-14.3C73.5-3.8,77.6,6.4,87,6.4l358,2.5c9.4,0,17.1-12.8,17.1-23.3l5.1,3.1
	c-0.1,11.4-7.8,25-17.4,25L83.9,11c-9.6,0-13.8-10.9-13.8-22.2L73.5-14.3z"/>
</svg>
