<?xml version="1.0" encoding="utf-8"?>
<!-- Generator: Adobe Illustrator 24.1.2, SVG Export Plug-In . SVG Version: 6.00 Build 0)  -->
<svg version="1.1" id="kaonashi" xmlns="http://www.w3.org/2000/svg" xmlns:xlink="http://www.w3.org/1999/xlink" x="0px" y="0px"
	 viewBox="0 0 600 465" style="enable-background:new 0 0 600 465;" xml:space="preserve">
<style type="text/css">
	.st0{fill:#97A588;}
	.st1{fill:#627051;}
	.st2{fill:#E8E8E8;}
	.st3{fill:#DDE2D5;}
	.st4{fill:#A3511A;}
	.st5{display:none;fill:#171913;}
	.st6{fill:#171913;}
</style>
<path id="body_1_" class="st0" d="M594.9,469.3c0.3-4.9,0.6-9.9,0.9-15c11-184-45-468-320-451s-268,374-268,374s-4.6,40.5-4.2,91.6"
	/>
<path id="body-shading" class="st1" d="M597.5,468.9c6-92.9-2.5-202.4-33-276.5C512.7,66.8,417.9-2.6,288.3,2.8
	c0,0,250.2,20.6,261.8,305.7c2.6,64.5,3.2,117,0.4,160"/>
<path id="plate-bg_1_" class="st2" d="M71.9,468.6c0-7.8,6.4-14.2,14.2-14.2h363.7c7.8,0,14.2,6.4,14.2,14.2"/>
<path id="plate-shading" class="st3" d="M448.6,474.5c-1.6-18.5-34.8-17.6-34.8-17.6l0,0l43.2-2.6l7.1,14.2"/>
<path id="plate-frame" class="st4" d="M70.1,467c0-8.2,5.7-14.9,12.7-14.9h368.5c8.8,0,15.9,8.3,15.9,18.5c0-0.3-5.1,3.6-5.1,3.6
	c0-9.6-7-17.3-15.5-17.3H85.9c-6.8,0-12.4,6.3-12.4,13.9"/>
<path id="mask" class="st2" d="M251.3,73.1c0,0-144.5,9.2-160.5,196.2s181,168,181,168s200,10,182-165S310.4,73.1,251.3,73.1z"/>
<path id="mask-shading" class="st3" d="M268.3,73.7c0,0,103.2,7.1,146.4,176.1S295.4,436.9,295.4,436.9s97.1-0.3,140.8-65.4
	s10.4-175.1-16-214.3S357.9,78.5,268.3,73.7z"/>
<path id="mouth-closed" class="st5" d="M215.1,359.2c0,0,35.1,4.6,73.8,0c0,0,6.2,2.3,0,8.9c0,0-47.8,5-73.8,0
	C215.1,368.1,210.3,363.1,215.1,359.2z"/>
<path id="mouth-open" class="st6" d="M215.3,359.1c0,0,35.1,4.6,73.8,0c0,0,6.2,2.3,0,8.9l0,0c-9.2,4.4-18.7,6.9-37.8,7.2
	c-12.1,0.2-27.6-2.3-36-7.2C215.3,368,210.3,363,215.3,359.1z"/>
<path id="eyes-open" class="st6" d="M374.4,278.7c0,9.7-11,17.6-24.5,17.6s-24.5-7.9-24.5-17.6s11-17.6,24.5-17.6
	S374.4,269,374.4,278.7z M153.3,264.3c-13,0-23.6,7.2-23.6,16s10.6,16,23.6,16s23.6-7.2,23.6-16S166.3,264.3,153.3,264.3z"/>
<path id="eyes-closed" class="st5" d="M175.3,285.4c0,0-20.4-4.1-43.6,0.5c0,0-3.7-2.3,0-8.9c0,0,28.6-5,44.2,0
	C175.8,277,178.1,281.5,175.3,285.4z M373.4,274.1c-16.2-5-45.9,0-45.9,0c-3.9,6.6,0,8.9,0,8.9c24.1-4.6,45.9,0,45.9,0
	C375.9,279,373.4,274.1,373.4,274.1z"/>
<path id="stripes" class="st4" d="M177,203.8c-0.3,41.2-5.2,51.4-29,47.2s1.4-55.6,1.4-55.6C151.6,190.3,177.3,162.6,177,203.8z
	 M321.4,199.9c3.4,43.9,9.4,54.4,34.5,48.2s-5.6-59.2-5.6-59.2C347.4,183.7,317.9,156,321.4,199.9z M171.3,345.4
	c3.3-30.4-0.4-38.3-22.9-36.8s-3.5,41.1-3.5,41.1C146.5,353.6,167.9,375.8,171.3,345.4z M360.4,351.1c0,0,20-41.3-3.7-42.8
	c-23.8-1.5-27.7,6.7-24.2,38.3S358.6,355.1,360.4,351.1z"/>
</svg>
