<?xml version="1.0" encoding="utf-8"?>
<!-- Generator: Adobe Illustrator 24.1.2, SVG Export Plug-In . SVG Version: 6.00 Build 0)  -->
<svg version="1.1" id="kaonashi" xmlns="http://www.w3.org/2000/svg" xmlns:xlink="http://www.w3.org/1999/xlink" x="0px" y="0px"
	 viewBox="0 0 105 120" style="enable-background:new 0 0 105 120;" xml:space="preserve">
<style type="text/css">
	.st0{fill:#97A588;}
	.st1{fill:#627051;}
	.st2{fill:#E8E8E8;}
	.st3{fill:#DDE2D5;}
	.st4{fill:#A3511A;}
	.st5{fill:#171913;}
</style>
<path id="body_1_" class="st0" d="M124.909,139.679l4.837-159.091c1.133-1.96-126.035,1.406-126.035,1.406
	C2.85,28.628,5.467,89.888,20.765,137.213"/>
<path id="body-shading" class="st1" d="M71.9,81.5L45.3,81h-2.9c0,0,1,4.8,5.7,7.6c3.8,2.3,25.4,7,25.4,7L71.9,81.5z"/>
<path id="plate-bg_1_" class="st2" d="M120.097,127.323H86.291c-7.905,0-14.391-6.328-14.391-14.039V3.439
	c0-7.712,6.486-14.039,14.391-14.039h37.593L120.097,127.323z"/>
<path id="plate-shading" class="st3" d="M70.3,81.4c0,0,1.2,8.7,3.2,14.2c8.9,0,18.4-22.8,18.4-22.8L70.3,81.4z"/>
<path id="plate-frame" class="st4" d="M121.128,131.275L83.9,131c-9.6,0-13.8-10.9-13.8-22.2V86.1V37.8V2c0-8.2,5.7-14.9,12.7-14.9
	h35.232L121.128,131.275z M115.452-8.1H85.9c-6.8,0-12.4,6.3-12.4,13.9v32.1v47v20.8c0,10.5,4.1,20.7,13.5,20.7l31.032,0.217
	L115.452-8.1z"/>
<path id="left-hand-body" class="st0" d="M48.7,32.8c0,0,35.2,2.5,37.2,9.3s23.2,20.9-12,37.6c0,0-35.6,3.9-36.4,0
	C36.7,75.8,48.7,32.8,48.7,32.8z"/>
<path id="left-hand_1_" class="st5" d="M60.8,31.3c0.5-0.4,1.1-0.5,1.8-0.5c5.9,0.4,38,3.5,33.8,30.9c-0.7,4.4-2.3,8-4.5,11
	C80.4,88,52.1,85.8,45.6,85.1c-0.9-0.1-1.7-0.6-2.1-1.4c-1.2-2.3-2.8-6.9,3-6.9c7.7,0,25.6,7.6,42.2-10.4c0.3-0.3,0.9-2.2,1-2.7
	C91,60.2,95.4,44.8,69.5,40C69.5,40,51.9,37.5,60.8,31.3z"/>
</svg>
