<?xml version="1.0" encoding="utf-8"?>
<!-- Generator: Adobe Illustrator 24.1.2, SVG Export Plug-In . SVG Version: 6.00 Build 0)  -->
<svg version="1.1" id="kaonashi" xmlns="http://www.w3.org/2000/svg" xmlns:xlink="http://www.w3.org/1999/xlink" x="0px" y="0px"
	 viewBox="0 0 325 120" style="enable-background:new 0 0 325 120;" xml:space="preserve">
<style type="text/css">
	.st0{display:none;fill:#C6C6C6;}
	.st1{fill:#C1C4BB;}
	.st2{fill:#97A588;}
	.st3{fill:#627051;}
	.st4{fill:#E8E8E8;}
	.st5{fill:#DDE2D5;}
	.st6{fill:#A3511A;}
	.st7{fill:#171913;}
	.st8{display:none;fill:#212121;}
</style>
<ellipse id="shadow-small" class="st0" cx="189.1" cy="222.5" rx="209" ry="29.6"/>
<ellipse id="shadow-big" class="st1" cx="188.1" cy="222.5" rx="256.3" ry="29.6"/>
<path id="body" class="st2" d="M-37.2,203.3c41.8,31.6,223,30,361,14s156-44,167-228s-45-468-320-451s-268,374-268,374
	S-125.2,158.3-37.2,203.3z"/>
<path id="body-shading" class="st3" d="M391.9,84.2c-12.8,12.5-17.6,35.7-18.8,47.3c-1.2,11.6-6.6,9.3-9.3,12.8
	c-2.7,3.5-349.9-2.3-367.7-3.5s-26.3-14.1-26.3-14.1l27.4,1.3l355-0.9l6.8-41.2L391.9,84.2z M-33.1,81.5L-59.7,81h-2.9
	c0,0,1,4.8,5.7,7.6c3.8,2.3,25.4,7,25.4,7L-33.1,81.5z M459.5-272.6c-51.8-125.6-146.6-195-276.2-189.6c0,0,250.2,20.6,261.8,305.7
	s-16.2,334-206.7,381.5c0,0,184.6,6.8,222.9-68.7C499.7,80.8,511.2-146.9,459.5-272.6z"/>
<path id="plate-bg" class="st4" d="M344.9,128.9H-18.9c-7.8,0-14.2-6.4-14.2-14.2V3.6c0-7.8,6.4-14.2,14.2-14.2h363.7
	c7.8,0,14.2,6.4,14.2,14.2v111.1C359.1,122.5,352.8,128.9,344.9,128.9z"/>
<path id="plate-shading" class="st5" d="M308.8-8.1l43.2-2.6l7.1,14.2l2,77.8l-2,33.3l-14.2,14.2c0,0-25.3-0.1-12.8,0
	s8.4-36.5,5.2-41.2c-3.2-4.8-5.2-20.3-5.2-20.3l11.5-31.4c0,0,1.5-7.8,0-26.4C342-9,308.8-8.1,308.8-8.1L308.8-8.1z M-34.7,81.4
	c0,0,1.2,8.7,3.2,14.2c8.9,0,18.4-22.8,18.4-22.8L-34.7,81.4z"/>
<path id="plate-frame" class="st6" d="M344.8,133.7L-21.1,131c-9.6,0-13.8-10.9-13.8-22.2V86.1V37.8V2c0-8.2,5.7-14.9,12.7-14.9
	h368.5c8.8,0,15.9,8.3,15.9,18.5v103.1C362.1,120.1,354.4,133.7,344.8,133.7z M357.1,105.6V9.2c0-9.6-7-17.3-15.5-17.3H-19.1
	c-6.8,0-12.4,6.3-12.4,13.9v32.1v47v20.8c0,10.5,4.1,20.7,13.5,20.7l358,2.5C349.4,128.9,357.1,116.1,357.1,105.6z"/>
<path id="righ-hand-body" class="st2" d="M405.5,71.5c0,0-18.6,21.7-53.6,7.7S338.1,46.7,341.2,42s42.2-12.8,42.2-12.8L405.5,71.5z"
	/>
<path id="right-hand" class="st7" d="M370.9,29.8c-0.6-0.4-1.3-0.6-2-0.5c-6.7,0.4-43,3.7-38.3,32.9c4.7,28.9,48.7,25.8,57.5,24.9
	c1-0.1,1.9-0.7,2.4-1.5c1.3-2.4,3.2-7.3-3.4-7.3c-8.7,0-29,8.1-47.8-11.1c-0.4-0.4-1-2.4-1.2-2.9c-1.5-3.7-6.5-20.1,22.8-25.2
	C361.1,39.1,381,36.4,370.9,29.8z"/>
<path id="left-hand-body" class="st2" d="M-56.3,32.8c0,0,35.2,2.5,37.2,9.3S4.1,63-31.1,79.7c0,0-35.6,3.9-36.4,0
	C-68.3,75.8-56.3,32.8-56.3,32.8z"/>
<path id="left-hand_1_" class="st7" d="M-44.2,31.3c0.5-0.4,1.1-0.5,1.8-0.5c5.9,0.4,38,3.5,33.8,30.9c-0.7,4.4-2.3,8-4.5,11
	C-24.6,88-52.9,85.8-59.4,85.1c-0.9-0.1-1.7-0.6-2.1-1.4c-1.2-2.3-2.8-6.9,3-6.9c7.7,0,25.6,7.6,42.2-10.4c0.3-0.3,0.9-2.2,1-2.7
	C-14,60.2-9.6,44.8-35.5,40C-35.5,40-53.1,37.5-44.2,31.3z"/>
<path id="mask" class="st4" d="M146.3-391.9c0,0-144.5,9.2-160.5,196.2s181,168,181,168s200,10,182-165S205.4-391.9,146.3-391.9z"/>
<path id="mask-shading" class="st5" d="M163.3-391.3c0,0,103.2,7.1,146.4,176.1S190.4-28.1,190.4-28.1s97.1-0.3,140.8-65.4
	s10.4-175.1-16-214.3S252.9-386.5,163.3-391.3z"/>
<path id="mouth-closed" class="st8" d="M110.1-105.8c0,0,35.1,4.6,73.8,0c0,0,6.2,2.3,0,8.9c0,0-47.8,5-73.8,0
	C110.1-96.9,105.3-101.9,110.1-105.8z"/>
<path id="mouth-open" class="st7" d="M110.3-105.9c0,0,35.1,4.6,73.8,0c0,0,6.2,2.3,0,8.9l0,0c-9.2,4.4-18.7,6.9-37.8,7.2
	c-12.1,0.2-27.6-2.3-36-7.2C110.3-97,105.3-102,110.3-105.9z"/>
<path id="eyes-open" class="st7" d="M269.4-186.3c0,9.7-11,17.6-24.5,17.6s-24.5-7.9-24.5-17.6s11-17.6,24.5-17.6
	S269.4-196,269.4-186.3z M48.3-200.7c-13,0-23.6,7.2-23.6,16s10.6,16,23.6,16s23.6-7.2,23.6-16S61.3-200.7,48.3-200.7z"/>
<path id="eyes-closed" class="st8" d="M70.3-179.6c0,0-20.4-4.1-43.6,0.5c0,0-3.7-2.3,0-8.9c0,0,28.6-5,44.2,0
	C70.8-188,73.1-183.5,70.3-179.6z M268.4-190.9c-16.2-5-45.9,0-45.9,0c-3.9,6.6,0,8.9,0,8.9c24.1-4.6,45.9,0,45.9,0
	C270.9-186,268.4-190.9,268.4-190.9z"/>
<path id="stripes" class="st6" d="M72-261.2c-0.3,41.2-5.2,51.4-29,47.2s1.4-55.6,1.4-55.6C46.6-274.7,72.3-302.4,72-261.2z
	 M216.4-265.1c3.4,43.9,9.4,54.4,34.5,48.2s-5.6-59.2-5.6-59.2C242.4-281.3,212.9-309,216.4-265.1z M66.3-119.6
	c3.3-30.4-0.4-38.3-22.9-36.8s-3.5,41.1-3.5,41.1C41.5-111.4,62.9-89.2,66.3-119.6z M255.4-113.9c0,0,20-41.3-3.7-42.8
	c-23.8-1.5-27.7,6.7-24.2,38.3S253.6-109.9,255.4-113.9z"/>
</svg>
