<?xml version="1.0" encoding="utf-8"?>
<!-- Generator: Adobe Illustrator 24.1.2, SVG Export Plug-In . SVG Version: 6.00 Build 0)  -->
<svg version="1.1" id="kaonashi" xmlns="http://www.w3.org/2000/svg" xmlns:xlink="http://www.w3.org/1999/xlink" x="0px" y="0px"
	 viewBox="0 0 170 120" style="enable-background:new 0 0 170 120;" xml:space="preserve">
<style type="text/css">
	.st0{fill:#97A588;}
	.st1{fill:#627051;}
	.st2{fill:#E8E8E8;}
	.st3{fill:#DDE2D5;}
	.st4{fill:#A3511A;}
	.st5{fill:#171913;}
</style>
<path id="body_1_" class="st0" d="M149.1,123.9c8.9-31.8,16.7-134.6,16.7-134.6L-14.7-42.6c0,0,1.6,147.5,2.1,196.2"/>
<path id="body-shading" class="st1" d="M27.2,127.1L34,85.9l32.9-1.7c-12.8,12.5-17.6,35.7-18.8,47.3s-6.6,9.3-9.3,12.8
	 M136.3,156.3c4.6-9,8.8-20.2,12.5-33.2c9.7-33.4,16.4-78.5,19.1-127.6l-47-0.5c-3.1,57.9-12,99.4-29.7,130.7"/>
<path id="plate-bg_1_" class="st2" d="M-26.5-10.6h46.4c7.8,0,14.2,6.4,14.2,14.2v111.1c0,7.8-6.3,14.2-14.2,14.2h-42.8"/>
<path id="plate-shading" class="st3" d="M-16.3-8.1L27-10.7l7.1,14.2l2,77.8l-2,33.3l-14.2,14.2c0,0-25.3-0.1-12.8,0
	s8.4-36.5,5.2-41.2c-3.2-4.8-5.2-20.3-5.2-20.3l11.5-31.4c0,0,1.5-7.8,0-26.4C17-9-16.3-8.1-16.3-8.1L-16.3-8.1z"/>
<path id="plate-frame" class="st4" d="M-29.2-12.9h50.6c3.3,0,6.4,1.2,8.9,3.2c4.2,3.3,7,9,7,15.3v103.1c-0.1,6.1-2.3,12.7-5.8,17.7
	c-3.1,4.3-7.2,7.3-11.7,7.3l-46.7-0.3 M-13.6,128.7l28.7,0.2c3.8,0,7.4-2.2,10.2-5.5c4.1-4.7,6.8-11.7,6.8-17.8V9.2
	c0-5.4-2.2-10.2-5.7-13.4c-2.7-2.4-6.1-3.9-9.8-3.9h-30.7"/>
<path id="righ-hand-body" class="st0" d="M80.5,71.5c0,0-18.6,21.7-53.6,7.7S13.1,46.7,16.3,42s42.2-12.8,42.2-12.8L80.5,71.5z"/>
<path id="right-hand" class="st5" d="M45.9,29.8c-0.6-0.4-1.3-0.6-2-0.5c-6.7,0.4-43,3.7-38.3,32.9C10.4,91.1,54.4,88,63.1,87.1
	c1-0.1,1.9-0.7,2.4-1.5c1.3-2.4,3.2-7.3-3.4-7.3c-8.7,0-29,8.1-47.8-11.1c-0.4-0.4-1-2.4-1.2-2.9c-1.5-3.7-6.5-20.1,22.8-25.2
	C36.1,39.1,56,36.4,45.9,29.8z"/>
</svg>
