<?xml version="1.0" encoding="utf-8"?>
<!-- Generator: Adobe Illustrator 24.1.2, SVG Export Plug-In . SVG Version: 6.00 Build 0)  -->
<svg version="1.1" id="Layer_1" xmlns="http://www.w3.org/2000/svg" xmlns:xlink="http://www.w3.org/1999/xlink" x="0px" y="0px"
	 viewBox="0 0 500 500" style="enable-background:new 0 0 500 500;" xml:space="preserve">
<style type="text/css">
	.st0{opacity:0.25;fill:none;stroke:#899982;stroke-miterlimit:10;}
</style>
<circle class="st0" cx="196.7" cy="201.2" r="137.6"/>
<circle class="st0" cx="213.5" cy="329.5" r="64.8"/>
<circle class="st0" cx="66.9" cy="432.2" r="65.4"/>
<path class="st0" d="M500,419.6c-13.4,8.7-29.5,13.7-46.7,13.7c-47.5,0-86-38.5-86-86s38.5-86,86-86c17.2,0,33.3,5.1,46.7,13.8"/>
<circle class="st0" cx="419.5" cy="132.3" r="60.4"/>
<path class="st0" d="M252.6,500c0-24.9,20.1-45,45-45s45,20.1,45,45"/>
<circle class="st0" cx="62.7" cy="55" r="43.1"/>
<circle class="st0" cx="408.8" cy="68" r="36.5"/>
<circle class="st0" cx="435.9" cy="439.8" r="45.3"/>
<path class="st0" d="M342.6,0c0,24.9-20.1,45-45,45s-45-20.1-45-45"/>
<path class="st0" d="M0.1,275.1c23.6,15.3,39.3,41.9,39.3,72.2c0,30.3-15.7,56.9-39.3,72.2"/>
</svg>
