<?xml version="1.0" encoding="utf-8"?>
<!-- Generator: Adobe Illustrator 24.1.2, SVG Export Plug-In . SVG Version: 6.00 Build 0)  -->
<svg version="1.1" id="kaonashi" xmlns="http://www.w3.org/2000/svg" xmlns:xlink="http://www.w3.org/1999/xlink" x="0px" y="0px"
	 viewBox="0 0 600 135" style="enable-background:new 0 0 600 135;" xml:space="preserve">
<style type="text/css">
	.st0{display:none;fill:#C6C6C6;}
	.st1{fill:#C1C4BB;}
	.st2{fill:#97A588;}
	.st3{fill:#627051;}
	.st4{fill:#E8E8E8;}
	.st5{fill:#DDE2D5;}
	.st6{fill:#A3511A;}
	.st7{fill:#171913;}
	.st8{display:none;fill:#212121;}
</style>
<ellipse id="shadow-small" class="st0" cx="294.1" cy="102.5" rx="209" ry="29.6"/>
<ellipse id="shadow-big" class="st1" cx="293.1" cy="102.5" rx="256.3" ry="29.6"/>
<path id="body" class="st2" d="M67.8,83.3c41.8,31.6,223,30,361,14s156-44,167-228s-45-468-320-451s-268,374-268,374
	S-20.2,38.3,67.8,83.3z"/>
<path id="body-shading" class="st3" d="M496.9-35.8c-12.8,12.5-17.6,35.7-18.8,47.3c-1.2,11.6-6.6,9.3-9.3,12.8
	c-2.7,3.5-349.9-2.3-367.7-3.5S74.8,6.7,74.8,6.7L102.2,8l355-0.9l6.8-41.2L496.9-35.8z M71.9-38.5L45.3-39h-2.9c0,0,1,4.8,5.7,7.6
	c3.8,2.3,25.4,7,25.4,7L71.9-38.5z M564.5-392.6c-51.8-125.6-146.7-195-276.3-189.6c0,0,250.2,20.6,261.8,305.7
	C561.7,8.6,533.8,57.5,343.4,105c0,0,184.6,6.8,222.9-68.7C604.7-39.2,616.2-266.9,564.5-392.6z"/>
<path id="plate-bg" class="st4" d="M449.9,8.9H86.1c-7.8,0-14.2-6.4-14.2-14.2v-111.1c0-7.8,6.4-14.2,14.2-14.2h363.7
	c7.8,0,14.2,6.4,14.2,14.2V-5.3C464.1,2.5,457.8,8.9,449.9,8.9z"/>
<path id="plate-shading" class="st5" d="M413.8-128.1l43.2-2.6l7.1,14.2l2,77.8l-2,33.3L449.9,8.8c0,0-25.3-0.1-12.8,0
	s8.4-36.5,5.2-41.2c-3.2-4.8-5.2-20.3-5.2-20.3l11.5-31.4c0,0,1.5-7.8,0-26.4C447-129,413.8-128.1,413.8-128.1L413.8-128.1z
	 M70.3-38.6c0,0,1.2,8.7,3.2,14.2c8.9,0,18.4-22.8,18.4-22.8L70.3-38.6z"/>
<path id="plate-frame" class="st6" d="M449.8,13.7L83.9,11c-9.6,0-13.8-10.9-13.8-22.2v-22.7v-48.3V-118c0-8.2,5.7-14.9,12.7-14.9
	h368.5c8.8,0,15.9,8.3,15.9,18.5v103.1C467.1,0.1,459.4,13.7,449.8,13.7z M462.1-14.4v-96.4c0-9.6-7-17.3-15.5-17.3H85.9
	c-6.8,0-12.4,6.3-12.4,13.9v32.1v47v20.8C73.5-3.8,77.6,6.4,87,6.4l358,2.5C454.4,8.9,462.1-3.9,462.1-14.4z"/>
<path id="righ-hand-body" class="st2" d="M510.5-48.5c0,0-18.6,21.7-53.6,7.7S443.1-73.3,446.3-78s42.2-12.8,42.2-12.8L510.5-48.5z"
	/>
<path id="right-hand" class="st7" d="M475.9-90.2c-0.6-0.4-1.3-0.6-2-0.5c-6.7,0.4-43,3.7-38.3,32.9c4.7,28.9,48.7,25.8,57.5,24.9
	c1-0.1,1.9-0.7,2.4-1.5c1.3-2.4,3.2-7.3-3.4-7.3c-8.7,0-29,8.1-47.8-11.1c-0.4-0.4-1-2.4-1.2-2.9c-1.5-3.7-6.5-20.1,22.8-25.2
	C466.1-80.9,486-83.6,475.9-90.2z"/>
<path id="left-hand-body" class="st2" d="M48.7-87.2c0,0,35.2,2.5,37.2,9.3s23.2,20.9-12,37.6c0,0-35.6,3.9-36.4,0
	C36.7-44.2,48.7-87.2,48.7-87.2z"/>
<path id="left-hand_1_" class="st7" d="M60.8-88.7c0.5-0.4,1.1-0.5,1.8-0.5c5.9,0.4,38,3.5,33.8,30.9c-0.7,4.4-2.3,8-4.5,11
	C80.4-32,52.1-34.2,45.6-34.9c-0.9-0.1-1.7-0.6-2.1-1.4c-1.2-2.3-2.8-6.9,3-6.9c7.7,0,25.6,7.6,42.2-10.4c0.3-0.3,0.9-2.2,1-2.7
	c1.3-3.5,5.7-18.9-20.2-23.7C69.5-80,51.9-82.5,60.8-88.7z"/>
<path id="mask" class="st4" d="M251.3-511.9c0,0-144.5,9.2-160.5,196.2s181,168,181,168s200,10,182-165S310.4-511.9,251.3-511.9z"/>
<path id="mask-shading" class="st5" d="M268.3-511.3c0,0,103.2,7.1,146.4,176.1S295.4-148.1,295.4-148.1s97.1-0.3,140.8-65.4
	s10.4-175.1-16-214.3S357.9-506.5,268.3-511.3z"/>
<path id="mouth-closed" class="st8" d="M215.1-225.8c0,0,35.1,4.6,73.8,0c0,0,6.2,2.3,0,8.9c0,0-47.8,5-73.8,0
	C215.1-216.9,210.3-221.9,215.1-225.8z"/>
<path id="mouth-open" class="st7" d="M215.3-225.9c0,0,35.1,4.6,73.8,0c0,0,6.2,2.3,0,8.9l0,0c-9.2,4.4-18.7,6.9-37.8,7.2
	c-12.1,0.2-27.6-2.3-36-7.2C215.3-217,210.3-222,215.3-225.9z"/>
<path id="eyes-open" class="st7" d="M374.4-306.3c0,9.7-11,17.6-24.5,17.6s-24.5-7.9-24.5-17.6s11-17.6,24.5-17.6
	S374.4-316,374.4-306.3z M153.3-320.7c-13,0-23.6,7.2-23.6,16s10.6,16,23.6,16s23.6-7.2,23.6-16S166.3-320.7,153.3-320.7z"/>
<path id="eyes-closed" class="st8" d="M175.3-299.6c0,0-20.4-4.1-43.6,0.5c0,0-3.7-2.3,0-8.9c0,0,28.6-5,44.2,0
	C175.8-308,178.1-303.5,175.3-299.6z M373.4-310.9c-16.2-5-45.9,0-45.9,0c-3.9,6.6,0,8.9,0,8.9c24.1-4.6,45.9,0,45.9,0
	C375.9-306,373.4-310.9,373.4-310.9z"/>
<path id="stripes" class="st6" d="M177-381.2c-0.3,41.2-5.2,51.4-29,47.2s1.4-55.6,1.4-55.6C151.6-394.7,177.3-422.4,177-381.2z
	 M321.4-385.1c3.4,43.9,9.4,54.4,34.5,48.2c25.1-6.2-5.6-59.2-5.6-59.2C347.4-401.3,317.9-429,321.4-385.1z M171.3-239.6
	c3.3-30.4-0.4-38.3-22.9-36.8s-3.5,41.1-3.5,41.1C146.5-231.4,167.9-209.2,171.3-239.6z M360.4-233.9c0,0,20-41.3-3.7-42.8
	c-23.8-1.5-27.7,6.7-24.2,38.3S358.6-229.9,360.4-233.9z"/>
</svg>
