<?xml version="1.0" encoding="utf-8"?>
<!-- Generator: Adobe Illustrator 24.1.2, SVG Export Plug-In . SVG Version: 6.00 Build 0)  -->
<svg version="1.1" id="kaonashi" xmlns="http://www.w3.org/2000/svg" xmlns:xlink="http://www.w3.org/1999/xlink" x="0px" y="0px"
	 viewBox="0 0 600 465" style="enable-background:new 0 0 600 465;" xml:space="preserve">
<style type="text/css">
	.st0{display:none;fill:#C6C6C6;}
	.st1{fill:#C1C4BB;}
	.st2{fill:#97A588;}
	.st3{fill:#627051;}
	.st4{fill:#E8E8E8;}
	.st5{fill:#DDE2D5;}
	.st6{fill:#A3511A;}
	.st7{fill:#171913;}
	.st8{display:none;fill:#212121;}
</style>
<ellipse id="shadow-small" class="st0" cx="294.1" cy="687.5" rx="209" ry="29.6"/>
<ellipse id="shadow-big" class="st1" cx="293.1" cy="687.5" rx="256.3" ry="29.6"/>
<path id="body" class="st2" d="M67.8,668.3c41.8,31.6,223,30,361,14s156-44,167-228s-45-468-320-451s-268,374-268,374
	S-20.2,623.3,67.8,668.3z"/>
<path id="body-shading" class="st3" d="M496.9,549.2c-12.8,12.5-17.6,35.7-18.8,47.3c-1.2,11.6-6.6,9.3-9.3,12.8
	c-2.7,3.5-349.9-2.3-367.7-3.5s-26.3-14.1-26.3-14.1l27.4,1.3l355-0.9l6.8-41.2L496.9,549.2z M71.9,546.5L45.3,546h-2.9
	c0,0,1,4.8,5.7,7.6c3.8,2.3,25.4,7,25.4,7L71.9,546.5z M564.5,192.4C512.7,66.8,417.9-2.6,288.3,2.8c0,0,250.2,20.6,261.8,305.7
	c11.6,285.1-16.2,334-206.7,381.5c0,0,184.6,6.8,222.9-68.7C604.7,545.8,616.2,318.1,564.5,192.4z"/>
<path id="plate-bg" class="st4" d="M449.9,593.9H86.1c-7.8,0-14.2-6.4-14.2-14.2V468.6c0-7.8,6.4-14.2,14.2-14.2h363.7
	c7.8,0,14.2,6.4,14.2,14.2v111.1C464.1,587.5,457.8,593.9,449.9,593.9z"/>
<path id="plate-shading" class="st5" d="M413.8,456.9l43.2-2.6l7.1,14.2l2,77.8l-2,33.3l-14.2,14.2c0,0-25.3-0.1-12.8,0
	s8.4-36.5,5.2-41.2c-3.2-4.8-5.2-20.3-5.2-20.3l11.5-31.4c0,0,1.5-7.8,0-26.4C447,456,413.8,456.9,413.8,456.9L413.8,456.9z
	 M70.3,546.4c0,0,1.2,8.7,3.2,14.2c8.9,0,18.4-22.8,18.4-22.8L70.3,546.4z"/>
<path id="plate-frame" class="st6" d="M449.8,598.7L83.9,596c-9.6,0-13.8-10.9-13.8-22.2v-22.7v-48.3V467c0-8.2,5.7-14.9,12.7-14.9
	h368.5c8.8,0,15.9,8.3,15.9,18.5v103.1C467.1,585.1,459.4,598.7,449.8,598.7z M462.1,570.6v-96.4c0-9.6-7-17.3-15.5-17.3H85.9
	c-6.8,0-12.4,6.3-12.4,13.9v32.1v47v20.8c0,10.5,4.1,20.7,13.5,20.7l358,2.5C454.4,593.9,462.1,581.1,462.1,570.6z"/>
<path id="righ-hand-body" class="st2" d="M510.5,536.5c0,0-18.6,21.7-53.6,7.7s-13.8-32.5-10.7-37.2s42.2-12.8,42.2-12.8
	L510.5,536.5z"/>
<path id="right-hand" class="st7" d="M475.9,494.8c-0.6-0.4-1.3-0.6-2-0.5c-6.7,0.4-43,3.7-38.3,32.9c4.7,28.9,48.7,25.8,57.5,24.9
	c1-0.1,1.9-0.7,2.4-1.5c1.3-2.4,3.2-7.3-3.4-7.3c-8.7,0-29,8.1-47.8-11.1c-0.4-0.4-1-2.4-1.2-2.9c-1.5-3.7-6.5-20.1,22.8-25.2
	C466.1,504.1,486,501.4,475.9,494.8z"/>
<path id="left-hand-body" class="st2" d="M48.7,497.8c0,0,35.2,2.5,37.2,9.3s23.2,20.9-12,37.6c0,0-35.6,3.9-36.4,0
	C36.7,540.8,48.7,497.8,48.7,497.8z"/>
<path id="left-hand_1_" class="st7" d="M60.8,496.3c0.5-0.4,1.1-0.5,1.8-0.5c5.9,0.4,38,3.5,33.8,30.9c-0.7,4.4-2.3,8-4.5,11
	c-11.5,15.3-39.8,13.1-46.3,12.4c-0.9-0.1-1.7-0.6-2.1-1.4c-1.2-2.3-2.8-6.9,3-6.9c7.7,0,25.6,7.6,42.2-10.4c0.3-0.3,0.9-2.2,1-2.7
	c1.3-3.5,5.7-18.9-20.2-23.7C69.5,505,51.9,502.5,60.8,496.3z"/>
<path id="mask" class="st4" d="M251.3,73.1c0,0-144.5,9.2-160.5,196.2s181,168,181,168s200,10,182-165S310.4,73.1,251.3,73.1z"/>
<path id="mask-shading" class="st5" d="M268.3,73.7c0,0,103.2,7.1,146.4,176.1S295.4,436.9,295.4,436.9s97.1-0.3,140.8-65.4
	s10.4-175.1-16-214.3S357.9,78.5,268.3,73.7z"/>
<path id="mouth-closed" class="st8" d="M215.1,359.2c0,0,35.1,4.6,73.8,0c0,0,6.2,2.3,0,8.9c0,0-47.8,5-73.8,0
	C215.1,368.1,210.3,363.1,215.1,359.2z"/>
<path id="mouth-open" class="st7" d="M215.3,359.1c0,0,35.1,4.6,73.8,0c0,0,6.2,2.3,0,8.9l0,0c-9.2,4.4-18.7,6.9-37.8,7.2
	c-12.1,0.2-27.6-2.3-36-7.2C215.3,368,210.3,363,215.3,359.1z"/>
<path id="eyes-open" class="st7" d="M374.4,278.7c0,9.7-11,17.6-24.5,17.6s-24.5-7.9-24.5-17.6s11-17.6,24.5-17.6
	S374.4,269,374.4,278.7z M153.3,264.3c-13,0-23.6,7.2-23.6,16s10.6,16,23.6,16s23.6-7.2,23.6-16S166.3,264.3,153.3,264.3z"/>
<path id="eyes-closed" class="st8" d="M175.3,285.4c0,0-20.4-4.1-43.6,0.5c0,0-3.7-2.3,0-8.9c0,0,28.6-5,44.2,0
	C175.8,277,178.1,281.5,175.3,285.4z M373.4,274.1c-16.2-5-45.9,0-45.9,0c-3.9,6.6,0,8.9,0,8.9c24.1-4.6,45.9,0,45.9,0
	C375.9,279,373.4,274.1,373.4,274.1z"/>
<path id="stripes" class="st6" d="M177,203.8c-0.3,41.2-5.2,51.4-29,47.2s1.4-55.6,1.4-55.6C151.6,190.3,177.3,162.6,177,203.8z
	 M321.4,199.9c3.4,43.9,9.4,54.4,34.5,48.2s-5.6-59.2-5.6-59.2C347.4,183.7,317.9,156,321.4,199.9z M171.3,345.4
	c3.3-30.4-0.4-38.3-22.9-36.8s-3.5,41.1-3.5,41.1C146.5,353.6,167.9,375.8,171.3,345.4z M360.4,351.1c0,0,20-41.3-3.7-42.8
	c-23.8-1.5-27.7,6.7-24.2,38.3S358.6,355.1,360.4,351.1z"/>
</svg>
